<svg xmlns="http://www.w3.org/2000/svg" width="18" height="18" viewBox="0 0 18 18" fill="none">
<path fill-rule="evenodd" clip-rule="evenodd" d="M2.44196 0.172363H14.9242C16.1771 0.172363 17.1938 1.34562 17.1941 2.79121V14.5754C17.1941 16.0208 16.1773 17.1941 14.9245 17.1941H2.44196C1.18914 17.1941 0.172363 16.021 0.172363 14.5754V2.79121C0.172363 1.34562 1.18914 0.172363 2.44196 0.172363ZM7.20896 6.95044L7.20884 6.94025L7.20878 6.93674C7.20142 6.61913 6.9417 6.36432 6.62264 6.36432C6.29902 6.36432 6.03635 6.62657 6.03635 6.95045L6.03633 11.264L6.03643 11.2742L6.03651 11.2777C6.04387 11.5953 6.30361 11.8501 6.62265 11.8501C6.94629 11.8501 7.20894 11.5879 7.20894 11.264L7.20896 6.95044ZM11.1025 6.95044L11.1023 6.93984L11.1023 6.93674C11.0949 6.61913 10.8352 6.36432 10.5161 6.36432C10.1925 6.36432 9.92986 6.62657 9.92986 6.95045L9.92984 11.264L9.92993 11.2742L9.93002 11.2777C9.93738 11.5953 10.1971 11.8501 10.5162 11.8501C10.8398 11.8501 11.1024 11.5879 11.1024 11.264L11.1025 6.95044ZM5.26172 8.45332L5.2616 8.44313L5.26154 8.4396C5.25416 8.12199 4.99445 7.86721 4.6754 7.86721C4.35178 7.86721 4.08911 8.12944 4.08911 8.45332L4.08909 9.76115L4.08919 9.77134L4.08927 9.77485C4.09663 10.0925 4.35635 10.3473 4.67541 10.3473C4.99903 10.3473 5.2617 10.085 5.2617 9.76115L5.26172 8.45332ZM13.0381 8.45332L13.038 8.44313L13.0379 8.43962C13.0306 8.12199 12.7708 7.86721 12.4518 7.86721C12.1282 7.86721 11.8655 8.12943 11.8655 8.45332L11.8655 9.76115L11.8656 9.77133L11.8656 9.77486C11.873 10.0925 12.1327 10.3473 12.4518 10.3473C12.7754 10.3473 13.0381 10.085 13.0381 9.76115L13.0381 8.45332ZM9.14456 5.78805C9.14456 5.46426 8.88209 5.20176 8.55827 5.20176C8.23447 5.20176 7.97198 5.46425 7.97198 5.78805V12.4137C7.97198 12.7375 8.23447 13 8.55827 13C8.88209 13 9.14456 12.7375 9.14456 12.4137V5.78805Z" fill="#C58560"/>
</svg>