<svg xmlns="http://www.w3.org/2000/svg" width="18" height="18" viewBox="0 0 18 18" fill="none">
<path d="M14.7616 0.0146484H2.27937C1.02654 0.0146484 0.00976562 1.1879 0.00976562 2.6335V14.4177C0.00976562 15.8633 1.02654 17.0363 2.27937 17.0363H14.7619C16.0147 17.0363 17.0315 15.8631 17.0315 14.4177V2.6335C17.0312 1.1879 16.0145 0.0146484 14.7616 0.0146484ZM11.4535 8.91668L6.80823 11.652C6.72312 11.6951 6.62838 11.717 6.53384 11.717C6.4434 11.717 6.35296 11.6977 6.27216 11.6575C6.10522 11.5772 6.00186 11.4254 6.00186 11.2607V5.79006C6.00186 5.62559 6.10502 5.47465 6.27216 5.39323C6.43806 5.31182 6.64458 5.31469 6.80823 5.39877L11.4535 8.1341C11.6141 8.21634 11.7121 8.36543 11.7121 8.52539C11.7119 8.68638 11.6141 8.83444 11.4535 8.91668Z" fill="#C58560"/>
</svg>