<svg xmlns="http://www.w3.org/2000/svg" width="18" height="18" viewBox="0 0 18 18" fill="none">
<path fill-rule="evenodd" clip-rule="evenodd" d="M2.27936 0.0141602H14.7616C16.0145 0.0141602 17.0312 1.18741 17.0315 2.63301V14.4172C17.0315 15.8626 16.0147 17.0358 14.7619 17.0358H2.27936C1.02654 17.0358 0.00976562 15.8628 0.00976562 14.4172V2.63301C0.00976562 1.18741 1.02654 0.0141602 2.27936 0.0141602ZM6.83813 9.35223H6.09771C5.93164 9.35223 5.81169 9.32455 5.73788 9.2692C5.66407 9.20922 5.62716 9.10543 5.62716 8.9578C5.62716 8.81018 5.66638 8.70408 5.7448 8.63949C5.82323 8.57491 5.94317 8.54261 6.10463 8.54261H7.26024C7.44939 8.54261 7.57625 8.59105 7.64083 8.68793C7.70542 8.78481 7.73771 8.95319 7.73771 9.19308C7.73771 9.48371 7.70081 9.7605 7.62699 10.0235C7.5578 10.2864 7.44016 10.5194 7.27408 10.7224C7.11262 10.9207 6.90272 11.0776 6.64438 11.1929C6.38604 11.3129 6.07003 11.3728 5.69636 11.3728C5.33192 11.3728 5.00438 11.3129 4.71375 11.1929C4.42311 11.073 4.174 10.9046 3.9664 10.6878C3.76342 10.4663 3.60657 10.2011 3.49586 9.89198C3.38975 9.5829 3.3367 9.2369 3.3367 8.85401C3.3367 8.48956 3.38744 8.15049 3.48894 7.83679C3.59504 7.52309 3.74728 7.25091 3.94564 7.02025C4.14401 6.78959 4.38621 6.60737 4.67223 6.47358C4.96286 6.3398 5.29271 6.27291 5.66176 6.27291C5.87397 6.27291 6.07234 6.29136 6.25687 6.32827C6.4414 6.36056 6.63746 6.43668 6.84505 6.55662C6.96961 6.63505 7.08494 6.72039 7.19104 6.81266C7.29715 6.90031 7.38249 6.99027 7.44708 7.08253C7.51166 7.17018 7.54626 7.25783 7.55088 7.34548C7.5601 7.42852 7.5232 7.50003 7.44016 7.56C7.39864 7.5969 7.34789 7.6292 7.28792 7.65688C7.23256 7.68456 7.17259 7.7007 7.10801 7.70531C7.04342 7.70993 6.97884 7.70301 6.91425 7.68456C6.84967 7.6661 6.78969 7.6292 6.73434 7.57384C6.54981 7.37547 6.3745 7.24169 6.20843 7.17249C6.04697 7.09868 5.85552 7.06177 5.63408 7.06177C5.44033 7.06177 5.25811 7.10329 5.08742 7.18633C4.91673 7.26936 4.7691 7.387 4.64455 7.53924C4.51999 7.69147 4.42081 7.876 4.34699 8.09282C4.27318 8.30965 4.23628 8.55184 4.23628 8.81941C4.23628 9.09159 4.27088 9.33609 4.34008 9.55291C4.41389 9.76973 4.51538 9.95426 4.64455 10.1065C4.77372 10.2587 4.92826 10.3764 5.10818 10.4594C5.28809 10.5424 5.48646 10.584 5.70328 10.584C5.86013 10.584 6.00545 10.554 6.13923 10.494C6.27763 10.4294 6.39757 10.3441 6.49906 10.238C6.60517 10.1273 6.6882 9.99809 6.74818 9.85046C6.80815 9.69823 6.83813 9.53215 6.83813 9.35223ZM9.24067 10.8608C9.24067 11.0084 9.20376 11.1191 9.12995 11.1929C9.06075 11.2667 8.94542 11.3036 8.78396 11.3036C8.62249 11.3036 8.50716 11.2667 8.43797 11.1929C8.37338 11.1191 8.34109 11.0107 8.34109 10.8677V6.78498C8.34109 6.48973 8.48871 6.34211 8.78396 6.34211C8.93158 6.34211 9.0446 6.3744 9.12303 6.43899C9.20145 6.50357 9.24067 6.61659 9.24067 6.77806V10.8608ZM12.6951 8.45266C12.6167 8.38807 12.5106 8.35578 12.3768 8.35578H10.9098V7.18633H12.5844C12.7182 7.18633 12.822 7.15865 12.8958 7.10329C12.9696 7.04332 13.0042 6.94183 12.9996 6.79882C12.995 6.65581 12.9581 6.55662 12.8889 6.50126C12.8243 6.44129 12.7251 6.41131 12.5913 6.41131H10.4531C10.3055 6.41131 10.1948 6.43899 10.1209 6.49434C10.0471 6.5497 10.0102 6.64889 10.0102 6.7919V11.0199C10.0102 11.0845 10.0425 11.1468 10.1071 11.2067C10.1763 11.2713 10.2916 11.3036 10.4531 11.3036C10.6146 11.3036 10.7299 11.2713 10.7991 11.2067C10.8729 11.1468 10.9098 11.0845 10.9098 11.0199V9.1308H12.3768C12.5244 9.1308 12.6305 9.10312 12.6951 9.04776C12.7597 8.98779 12.792 8.88861 12.792 8.75021C12.792 8.61643 12.7597 8.51724 12.6951 8.45266Z" fill="#C58560"/>
</svg>