<svg xmlns="http://www.w3.org/2000/svg" width="10" height="10" viewBox="0 0 10 10" fill="none">
    <path d="M9.37385 5.36236C9.10546 5.63075 8.67041 5.63075 8.40169 5.36236L5.68723 2.64791L5.68723 9.00021C5.68723 9.37993 5.37967 9.6875 4.99994 9.6875C4.6202 9.6875 4.31264 9.37994 4.31264 9.00021L4.31264 2.64791L1.59819 5.36236C1.32946 5.63075 0.894411 5.63075 0.626022 5.36236C0.357633 5.09398 0.357633 4.65892 0.626022 4.39053L4.51403 0.50252C4.78242 0.234131 5.21748 0.234131 5.48587 0.50252L9.37387 4.39053C9.64226 4.65892 9.64226 5.09397 9.37387 5.36236L9.37385 5.36236Z" fill="#C59278"/>
</svg>