<svg xmlns="http://www.w3.org/2000/svg" width="19" height="14" viewBox="0 0 19 14" fill="none">
<path d="M16.4 0.800049H2C0.895431 0.800049 0 1.69548 0 2.80005V9.20005C0 10.3046 0.895431 11.2 2 11.2H2.1651C2.35889 11.2 2.52481 11.339 2.55887 11.5297L2.84815 13.1496C2.89816 13.4297 3.27356 13.4894 3.40792 13.2386L3.93452 12.2556C4.28269 11.6057 4.96018 11.2 5.69747 11.2H16.4C17.5046 11.2 18.4 10.3046 18.4 9.20005V6.00005V2.80005C18.4 1.69548 17.5046 0.800049 16.4 0.800049Z" fill="#EB5757"/>
<path d="M6.4208 7.8488C6.3536 7.916 6.2552 7.9664 6.1256 8C6.0008 8.0384 5.8496 8.0576 5.672 8.0576C5.4944 8.0576 5.3264 8.0312 5.168 7.9784C5.0096 7.9256 4.88 7.7984 4.7792 7.5968L4.0664 6.1424C3.9944 5.9936 3.9296 5.8544 3.872 5.7248C3.8144 5.5904 3.752 5.4368 3.6848 5.264L3.6416 5.2712C3.6608 5.5304 3.6704 5.7944 3.6704 6.0632C3.6752 6.332 3.6776 6.596 3.6776 6.8552V7.9712C3.6248 7.9856 3.5432 8 3.4328 8.0144C3.3272 8.0288 3.2216 8.036 3.116 8.036C3.0104 8.036 2.9168 8.0288 2.8352 8.0144C2.7536 8 2.6864 7.9712 2.6336 7.928C2.5808 7.8848 2.54 7.8272 2.5112 7.7552C2.4824 7.6784 2.468 7.58 2.468 7.46V3.86C2.5352 3.764 2.6384 3.692 2.7776 3.644C2.9168 3.596 3.0656 3.572 3.224 3.572C3.4016 3.572 3.5696 3.6008 3.728 3.6584C3.8912 3.7112 4.0208 3.836 4.1168 4.0328L4.8368 5.4872C4.9088 5.636 4.9736 5.7776 5.0312 5.912C5.0888 6.0416 5.1512 6.1928 5.2184 6.3656L5.2544 6.3584C5.2352 6.0992 5.2232 5.84 5.2184 5.5808C5.2136 5.3216 5.2112 5.0624 5.2112 4.8032V3.6368C5.264 3.6224 5.3432 3.608 5.4488 3.5936C5.5592 3.5792 5.6672 3.572 5.7728 3.572C5.984 3.572 6.1448 3.6104 6.2552 3.6872C6.3656 3.7592 6.4208 3.9128 6.4208 4.148V7.8488ZM9.11152 8.1152C8.82832 8.1152 8.56432 8.0768 8.31952 8C8.07952 7.9184 7.86832 7.7984 7.68592 7.64C7.50832 7.4816 7.36672 7.2824 7.26112 7.0424C7.16032 6.8024 7.10992 6.5216 7.10992 6.2C7.10992 5.8832 7.16032 5.612 7.26112 5.3864C7.36672 5.156 7.50352 4.9688 7.67152 4.8248C7.83952 4.676 8.03152 4.568 8.24752 4.5008C8.46352 4.4288 8.68432 4.3928 8.90992 4.3928C9.16432 4.3928 9.39472 4.4312 9.60112 4.508C9.81232 4.5848 9.99232 4.6904 10.1411 4.8248C10.2947 4.9592 10.4123 5.12 10.4939 5.3072C10.5803 5.4944 10.6235 5.6984 10.6235 5.9192C10.6235 6.0824 10.5779 6.2072 10.4867 6.2936C10.3955 6.38 10.2683 6.4352 10.1051 6.4592L8.32672 6.7256C8.37952 6.884 8.48752 7.004 8.65072 7.0856C8.81392 7.1624 9.00112 7.2008 9.21232 7.2008C9.40912 7.2008 9.59392 7.1768 9.76672 7.1288C9.94432 7.076 10.0883 7.016 10.1987 6.9488C10.2755 6.9968 10.3403 7.064 10.3931 7.1504C10.4459 7.2368 10.4723 7.328 10.4723 7.424C10.4723 7.64 10.3715 7.8008 10.1699 7.9064C10.0163 7.988 9.84352 8.0432 9.65152 8.072C9.45952 8.1008 9.27952 8.1152 9.11152 8.1152ZM8.90992 5.2856C8.79472 5.2856 8.69392 5.3048 8.60752 5.3432C8.52592 5.3816 8.45872 5.432 8.40592 5.4944C8.35312 5.552 8.31232 5.6192 8.28352 5.696C8.25952 5.768 8.24512 5.8424 8.24032 5.9192L9.47152 5.7176C9.45712 5.6216 9.40432 5.5256 9.31312 5.4296C9.22192 5.3336 9.08752 5.2856 8.90992 5.2856ZM13.2071 7.892C13.1399 7.9496 13.0487 7.9952 12.9335 8.0288C12.8183 8.0672 12.6815 8.0864 12.5231 8.0864C12.3263 8.0864 12.1559 8.0576 12.0119 8C11.8679 7.9472 11.7719 7.8704 11.7239 7.7696C11.6711 7.6544 11.6087 7.472 11.5367 7.2224C11.4695 6.9728 11.4023 6.6992 11.3351 6.4016C11.2679 6.104 11.2031 5.8016 11.1407 5.4944C11.0831 5.1872 11.0375 4.916 11.0039 4.6808C11.0711 4.6136 11.1599 4.556 11.2703 4.508C11.3855 4.4552 11.5103 4.4288 11.6447 4.4288C11.8127 4.4288 11.9495 4.4672 12.0551 4.544C12.1655 4.616 12.2327 4.7432 12.2567 4.9256C12.3047 5.2904 12.3455 5.5928 12.3791 5.8328C12.4127 6.068 12.4391 6.2624 12.4583 6.416C12.4823 6.5648 12.4991 6.68 12.5087 6.7616C12.5231 6.8384 12.5351 6.9008 12.5447 6.9488H12.5735C12.5879 6.872 12.6119 6.7616 12.6455 6.6176C12.6839 6.4688 12.7271 6.3008 12.7751 6.1136C12.8231 5.9264 12.8735 5.7248 12.9263 5.5088C12.9791 5.288 13.0319 5.0696 13.0847 4.8536C13.1807 4.8008 13.2743 4.76 13.3655 4.7312C13.4615 4.7024 13.5791 4.688 13.7183 4.688C13.8863 4.688 14.0303 4.7144 14.1503 4.7672C14.2703 4.82 14.3471 4.9016 14.3807 5.012C14.4383 5.2232 14.4935 5.4296 14.5463 5.6312C14.5991 5.828 14.6471 6.0128 14.6903 6.1856C14.7335 6.3536 14.7719 6.5048 14.8055 6.6392C14.8391 6.7688 14.8631 6.872 14.8775 6.9488H14.9135C14.9663 6.5792 15.0167 6.1952 15.0647 5.7968C15.1175 5.3984 15.1655 4.9928 15.2087 4.58C15.2951 4.5272 15.3863 4.4888 15.4823 4.4648C15.5783 4.4408 15.6743 4.4288 15.7703 4.4288C15.9383 4.4288 16.0775 4.4648 16.1879 4.5368C16.2983 4.6088 16.3535 4.7336 16.3535 4.9112C16.3535 4.988 16.3415 5.1032 16.3175 5.2568C16.2935 5.4104 16.2623 5.5832 16.2239 5.7752C16.1855 5.9672 16.1399 6.1688 16.0871 6.38C16.0391 6.5912 15.9887 6.7952 15.9359 6.992C15.8879 7.1888 15.8399 7.3664 15.7919 7.5248C15.7487 7.6832 15.7103 7.8056 15.6767 7.892C15.6095 7.9496 15.5063 7.9952 15.3671 8.0288C15.2279 8.0672 15.0791 8.0864 14.9207 8.0864C14.5175 8.0864 14.2799 7.9856 14.2079 7.784C14.1791 7.6976 14.1431 7.5896 14.0999 7.46C14.0567 7.3256 14.0111 7.1792 13.9631 7.0208C13.9151 6.8624 13.8695 6.6992 13.8263 6.5312C13.7831 6.3584 13.7471 6.1928 13.7183 6.0344C13.6847 6.2024 13.6439 6.3776 13.5959 6.56C13.5479 6.7376 13.4975 6.9128 13.4447 7.0856C13.3967 7.2536 13.3511 7.4096 13.3079 7.5536C13.2647 7.6928 13.2311 7.8056 13.2071 7.892Z" fill="#1A110D"/>
</svg>