<svg xmlns="http://www.w3.org/2000/svg" width="16" height="16" viewBox="0 0 16 16" fill="none">
<path opacity="0.5" d="M11.8403 2.23997H5.12031C3.53631 2.23997 2.24031 3.53597 2.24031 5.11997V11.84C0.992312 11.792 0.320312 11.072 0.320312 9.72797V2.38397C0.320312 1.03997 1.04031 0.271973 2.43231 0.271973H9.77631C11.0243 0.319973 11.7923 0.991972 11.8403 2.23997Z" fill="#AC562A"/>
<path d="M6.27118 4.16016H13.6152C14.9592 4.16016 15.7272 4.88016 15.7272 6.27216V13.6162C15.7272 14.9602 15.0072 15.7282 13.6152 15.7282H6.27118C4.92718 15.7282 4.15918 15.0082 4.15918 13.6162V6.27216C4.15918 4.88016 4.87918 4.16016 6.27118 4.16016Z" fill="#AC562A"/>
</svg>