<svg xmlns="http://www.w3.org/2000/svg" width="15" height="15" viewBox="0 0 15 15" fill="none">
<path d="M11.3259 0.0625C12.7058 0.143167 13.9497 0.824296 14.5935 2.33891C15.2475 3.87784 14.9564 5.30924 13.8279 6.53193C13.0289 7.39614 12.171 8.2066 11.3323 9.03367C10.9681 9.39344 10.3846 9.40496 10.0691 9.07336C9.74981 8.73791 9.78444 8.277 10.1679 7.89163C10.9912 7.06582 11.826 6.25027 12.6403 5.41679C13.8676 4.16079 13.3226 2.16349 11.6272 1.71281C10.9219 1.52589 10.2448 1.6552 9.70877 2.15453C8.84571 2.9573 8.03394 3.81254 7.17473 4.61659C6.99264 4.78687 6.69127 4.9341 6.4553 4.91874C5.82308 4.88032 5.50376 4.11469 5.94106 3.65891C6.88106 2.67947 7.8403 1.71538 8.84956 0.808923C9.46383 0.257104 10.2641 0.0676133 11.3259 0.0625ZM0.0625 11.1155C0.0689082 10.0592 0.436965 9.14634 1.17691 8.39351C1.99381 7.56131 2.82352 6.74191 3.65196 5.92122C4.04566 5.53072 4.52913 5.50129 4.86254 5.83672C5.2088 6.18625 5.17547 6.62667 4.76509 7.03894C3.9764 7.83017 3.17491 8.61118 2.39392 9.41137C1.42826 10.3985 1.38722 11.7313 2.27722 12.6262C3.12874 13.4828 4.53682 13.4866 5.42681 12.6198C6.23601 11.8312 7.0234 11.0194 7.83006 10.2295C8.31479 9.75577 9.0509 9.92478 9.17913 10.5624C9.2253 10.7915 9.13298 11.1372 8.97394 11.305C8.09679 12.2293 7.22089 13.1614 6.26551 14C5.09594 15.0268 3.72505 15.1971 2.29646 14.5749C0.915306 13.9731 0.0663516 12.6173 0.0625 11.1155V11.1155ZM10.7629 5.09159C10.7116 5.1876 10.6526 5.39502 10.5193 5.53072C8.90984 7.16442 7.29399 8.79041 5.67047 10.4087C5.32549 10.7531 4.83434 10.7301 4.50989 10.4023C4.18288 10.072 4.19186 9.61877 4.55605 9.25261C6.15009 7.65478 7.74926 6.06079 9.34714 4.46807C9.60617 4.20944 9.9101 4.10061 10.264 4.25425C10.5795 4.39124 10.7398 4.64219 10.7629 5.09158L10.7629 5.09159Z" fill="#AC562A"/>
</svg>