<svg xmlns="http://www.w3.org/2000/svg" width="18" height="18" viewBox="0 0 18 18" fill="none">
<path fill-rule="evenodd" clip-rule="evenodd" d="M2.27936 0.0141602H14.7616C16.0145 0.0141602 17.0312 1.18741 17.0315 2.63301V14.4172C17.0315 15.8626 16.0147 17.0358 14.7619 17.0358H2.27936C1.02654 17.0358 0.00976562 15.8628 0.00976562 14.4172V2.63301C0.00976562 1.18741 1.02654 0.0141602 2.27936 0.0141602ZM12.4112 5.78016C12.4112 6.45967 11.8166 7.05425 11.1371 7.05425C10.4576 7.05425 9.863 6.45967 9.863 5.78016C9.863 5.10065 10.4576 4.50607 11.1371 4.50607C11.8166 4.50607 12.4112 5.10065 12.4112 5.78016ZM6.89012 9.00785L7.73951 10.3669L8.75879 11.8108C8.75879 11.8958 8.75879 11.9807 8.84372 11.9807C9.0136 12.1506 9.26842 12.0657 9.4383 11.8958L10.6274 10.0271L10.7973 9.85725L10.8823 9.77231C11.0521 9.68737 11.307 9.68737 11.3919 9.85725L13.2606 12.4904C13.3455 12.4904 13.3455 12.5753 13.3455 12.6602C13.3455 12.8301 13.1756 13 13.0058 13H4.34194C4.08712 13 3.91725 12.8301 3.91725 12.5753V12.4054L6.12567 9.00785C6.21061 8.75303 6.46542 8.75304 6.72024 8.83797C6.75269 8.87042 6.78513 8.89047 6.81284 8.9076C6.85768 8.93531 6.89012 8.95536 6.89012 9.00785Z" fill="#C58560"/>
</svg>