<svg xmlns="http://www.w3.org/2000/svg" width="9" height="13" viewBox="0 0 9 13" fill="none">
<path d="M3.9128 12.0339L0.841109 8.30665C0.777037 8.22891 0.736391 8.13455 0.723911 8.03459C0.711431 7.93462 0.727632 7.83317 0.770623 7.74206C0.813615 7.65095 0.881626 7.57395 0.966722 7.52003C1.05182 7.46611 1.15049 7.43749 1.25123 7.43752H7.47748C7.57883 7.43746 7.67808 7.46638 7.76352 7.52088C7.84897 7.57538 7.91704 7.65318 7.95971 7.74511C8.00238 7.83704 8.01786 7.93925 8.00433 8.03969C7.9908 8.14013 7.94883 8.2346 7.88336 8.31196L4.72667 12.0392C4.67642 12.0985 4.61378 12.146 4.54316 12.1785C4.47255 12.2109 4.39567 12.2274 4.31796 12.2269C4.24025 12.2264 4.1636 12.2089 4.09341 12.1755C4.02322 12.1422 3.96121 12.0938 3.91173 12.0339H3.9128ZM3.9128 0.4909L0.841109 4.21815C0.777037 4.29589 0.736391 4.39025 0.723911 4.49021C0.711431 4.59018 0.727632 4.69163 0.770623 4.78274C0.813615 4.87385 0.881626 4.95085 0.966722 5.00477C1.05182 5.05869 1.15049 5.08731 1.25123 5.08728H7.47748C7.57883 5.08734 7.67808 5.05842 7.76352 5.00392C7.84897 4.94942 7.91704 4.87162 7.95971 4.77969C8.00238 4.68776 8.01786 4.58555 8.00433 4.48511C7.9908 4.38467 7.94883 4.2902 7.88336 4.21284L4.72773 0.485588C4.67749 0.426309 4.61484 0.378775 4.54423 0.34634C4.47361 0.313904 4.39673 0.297356 4.31902 0.297863C4.24131 0.298369 4.16466 0.315918 4.09447 0.349272C4.02429 0.382625 3.96227 0.430971 3.9128 0.4909Z" fill="#A3735A"/>
</svg>