<svg xmlns="http://www.w3.org/2000/svg" width="10" height="10" viewBox="0 0 10 10" fill="none">
<path d="M4.16931 9.16608C4.05966 9.16671 3.95096 9.1457 3.84945 9.10423C3.74793 9.06277 3.6556 9.00167 3.57774 8.92445L0.244974 5.59167C0.0880805 5.43478 -6.10344e-05 5.22199 -6.10352e-05 5.00011C-6.10359e-05 4.77823 0.0880805 4.56544 0.244974 4.40854C0.401867 4.25165 0.614659 4.16351 0.836539 4.16351C1.05842 4.16351 1.27121 4.25165 1.42811 4.40854L4.07767 7.06643L8.50194 1.16742C8.56746 1.07954 8.64968 1.00546 8.74388 0.949418C8.83808 0.893373 8.94242 0.856468 9.05091 0.840815C9.1594 0.825162 9.26991 0.831069 9.37611 0.858199C9.48232 0.885329 9.58212 0.933148 9.66981 0.998916C9.7575 1.06468 9.83135 1.14711 9.88713 1.24147C9.94291 1.33583 9.97953 1.44026 9.99488 1.5488C10.0102 1.65733 10.004 1.76782 9.97658 1.87395C9.94916 1.98008 9.90106 2.07975 9.83505 2.16725L4.83587 8.8328C4.76437 8.92878 4.67304 9.00823 4.56808 9.06574C4.46312 9.12325 4.347 9.15748 4.22763 9.16609L4.16931 9.16608Z" fill="#722F0D"/>
</svg>